<svg xmlns="http://www.w3.org/2000/svg" viewBox="0 0 760 360" font-family="Segoe UI, Arial, sans-serif">
<rect width="760" height="360" fill="white"/>
<text x="380" y="22" text-anchor="middle" font-size="15" font-weight="bold" fill="#111">Load Test – GET /api/articles – Durchsatz</text>
<line x1="60" y1="315" x2="700" y2="315" stroke="#e5e7eb" stroke-width="1"/><text x="52" y="319" text-anchor="end" font-size="11" fill="#888">0</text><line x1="60" y1="246.25" x2="700" y2="246.25" stroke="#e5e7eb" stroke-width="1"/><text x="52" y="250.25" text-anchor="end" font-size="11" fill="#888">6</text><line x1="60" y1="177.5" x2="700" y2="177.5" stroke="#e5e7eb" stroke-width="1"/><text x="52" y="181.5" text-anchor="end" font-size="11" fill="#888">11</text><line x1="60" y1="108.75" x2="700" y2="108.75" stroke="#e5e7eb" stroke-width="1"/><text x="52" y="112.75" text-anchor="end" font-size="11" fill="#888">17</text><line x1="60" y1="40" x2="700" y2="40" stroke="#e5e7eb" stroke-width="1"/><text x="52" y="44" text-anchor="end" font-size="11" fill="#888">22</text><line x1="60" y1="315" x2="700" y2="315" stroke="#374151"/><text x="60" y="333" text-anchor="middle" font-size="11" fill="#888">0s</text><text x="188" y="333" text-anchor="middle" font-size="11" fill="#888">11s</text><text x="316" y="333" text-anchor="middle" font-size="11" fill="#888">22s</text><text x="444" y="333" text-anchor="middle" font-size="11" fill="#888">33s</text><text x="572" y="333" text-anchor="middle" font-size="11" fill="#888">44s</text><text x="700" y="333" text-anchor="middle" font-size="11" fill="#888">55s</text>
<text x="14" y="177.5" transform="rotate(-90 14 177.5)" text-anchor="middle" font-size="11" fill="#111">Durchsatz (req/s)</text>
<polyline fill="none" stroke="#7c3aed" stroke-width="2" points="60.0,227.5 71.6,302.5 83.3,277.5 94.9,277.5 106.5,240.0 118.2,227.5 129.8,202.5 141.5,227.5 153.1,177.5 164.7,152.5 176.4,202.5 188.0,127.5 199.6,165.0 211.3,102.5 222.9,77.5 234.5,140.0 246.2,65.0 257.8,65.0 269.5,152.5 281.1,65.0 292.7,152.5 304.4,65.0 316.0,65.0 327.6,65.0 339.3,140.0 350.9,152.5 362.5,65.0 374.2,65.0 385.8,152.5 397.5,65.0 409.1,227.5 420.7,65.0 432.4,65.0 444.0,65.0 455.6,315.0 467.3,65.0 478.9,65.0 490.5,65.0 502.2,315.0 513.8,65.0 525.5,65.0 537.1,65.0 548.7,315.0 560.4,65.0 572.0,65.0 583.6,65.0 595.3,315.0 606.9,102.5 618.5,127.5 630.2,165.0 641.8,190.0 653.5,227.5 665.1,315.0 676.7,252.5 688.4,277.5 700.0,315.0"/>
<rect x="70" y="13" width="14" height="4" fill="#7c3aed"/><text x="90" y="18" font-size="12" fill="#111">Requests/s</text>
</svg>