<svg xmlns="http://www.w3.org/2000/svg" viewBox="0 0 760 360" font-family="Segoe UI, Arial, sans-serif">
<rect width="760" height="360" fill="white"/>
<text x="380" y="22" text-anchor="middle" font-size="15" font-weight="bold" fill="#111">Load Test – POST /api/users/login – Latenz & Last</text>
<line x1="60" y1="315" x2="700" y2="315" stroke="#e5e7eb" stroke-width="1"/><text x="52" y="319" text-anchor="end" font-size="11" fill="#888">0ms</text><line x1="60" y1="246.25" x2="700" y2="246.25" stroke="#e5e7eb" stroke-width="1"/><text x="52" y="250.25" text-anchor="end" font-size="11" fill="#888">56ms</text><line x1="60" y1="177.5" x2="700" y2="177.5" stroke="#e5e7eb" stroke-width="1"/><text x="52" y="181.5" text-anchor="end" font-size="11" fill="#888">112ms</text><line x1="60" y1="108.75" x2="700" y2="108.75" stroke="#e5e7eb" stroke-width="1"/><text x="52" y="112.75" text-anchor="end" font-size="11" fill="#888">167ms</text><line x1="60" y1="40" x2="700" y2="40" stroke="#e5e7eb" stroke-width="1"/><text x="52" y="44" text-anchor="end" font-size="11" fill="#888">223ms</text><line x1="60" y1="315" x2="700" y2="315" stroke="#374151"/><text x="60" y="333" text-anchor="middle" font-size="11" fill="#888">0s</text><text x="188" y="333" text-anchor="middle" font-size="11" fill="#888">11s</text><text x="316" y="333" text-anchor="middle" font-size="11" fill="#888">22s</text><text x="444" y="333" text-anchor="middle" font-size="11" fill="#888">33s</text><text x="572" y="333" text-anchor="middle" font-size="11" fill="#888">44s</text><text x="700" y="333" text-anchor="middle" font-size="11" fill="#888">55s</text><text x="708" y="319" font-size="11" fill="#16a34a">0</text><text x="708" y="250.25" font-size="11" fill="#16a34a">4</text><text x="708" y="181.5" font-size="11" fill="#16a34a">8</text><text x="708" y="112.75" font-size="11" fill="#16a34a">12</text><text x="708" y="44" font-size="11" fill="#16a34a">17</text>
<text x="14" y="177.5" transform="rotate(-90 14 177.5)" text-anchor="middle" font-size="11" fill="#111">Latenz (ms)</text>
<text x="746" y="177.5" transform="rotate(90 746 177.5)" text-anchor="middle" font-size="11" fill="#16a34a">VUs</text>
<polyline fill="none" stroke="#2563eb" stroke-width="2" points="60.0,220.8 71.6,242.2 83.3,248.1 94.9,252.3 106.5,253.8 118.2,243.6 129.8,228.9 141.5,215.8 153.1,201.4 164.7,186.0 176.4,174.2 188.0,158.7 199.6,141.3 211.3,132.2 222.9,116.7 234.5,101.5 246.2,100.0 257.8,99.7 269.5,98.5 281.1,100.5 292.7,99.2 304.4,97.6 316.0,98.1 327.6,100.7 339.3,100.4 350.9,99.8 362.5,99.4 374.2,100.5 385.8,99.4 397.5,101.2 409.1,98.7 420.7,98.8 432.4,97.8 444.0,93.0 455.6,93.4 467.3,96.4 478.9,90.3 490.5,92.6 502.2,100.4 513.8,101.1 525.5,98.1 537.1,96.6 548.7,93.1 560.4,95.8 572.0,97.3 583.6,99.0 595.3,119.4 606.9,140.4 618.5,164.1 630.2,184.0 641.8,207.2 653.5,228.8 665.1,247.5 676.7,252.5 688.4,250.1 700.0,254.7"/><polyline fill="none" stroke="#dc2626" stroke-width="2" points="60.0,220.8 71.6,221.3 83.3,233.4 94.9,248.1 106.5,250.1 118.2,230.7 129.8,212.2 141.5,201.4 153.1,196.8 164.7,165.9 176.4,154.6 188.0,142.8 199.6,121.7 211.3,104.4 222.9,95.6 234.5,87.2 246.2,88.2 257.8,89.2 269.5,88.0 281.1,90.1 292.7,84.7 304.4,84.0 316.0,80.5 327.6,89.9 339.3,89.0 350.9,87.7 362.5,83.4 374.2,84.6 385.8,84.6 397.5,88.1 409.1,83.7 420.7,83.0 432.4,77.7 444.0,76.7 455.6,80.3 467.3,81.7 478.9,65.0 490.5,75.0 502.2,85.5 513.8,88.1 525.5,82.9 537.1,82.2 548.7,79.7 560.4,79.7 572.0,84.0 583.6,82.4 595.3,95.5 606.9,110.1 618.5,145.7 630.2,154.8 641.8,197.1 653.5,204.3 665.1,224.4 676.7,247.6 688.4,237.4 700.0,254.7"/><polyline fill="none" stroke="#16a34a" stroke-width="2" points="60.0,315.0 71.6,298.3 83.3,281.7 94.9,265.0 106.5,248.3 118.2,231.7 129.8,215.0 141.5,198.3 153.1,181.7 164.7,165.0 176.4,148.3 188.0,131.7 199.6,115.0 211.3,98.3 222.9,81.7 234.5,65.0 246.2,65.0 257.8,65.0 269.5,65.0 281.1,65.0 292.7,65.0 304.4,65.0 316.0,65.0 327.6,65.0 339.3,65.0 350.9,65.0 362.5,65.0 374.2,65.0 385.8,65.0 397.5,65.0 409.1,65.0 420.7,65.0 432.4,65.0 444.0,65.0 455.6,65.0 467.3,65.0 478.9,65.0 490.5,65.0 502.2,65.0 513.8,65.0 525.5,65.0 537.1,65.0 548.7,65.0 560.4,65.0 572.0,65.0 583.6,81.7 595.3,98.3 606.9,131.7 618.5,148.3 630.2,181.7 641.8,198.3 653.5,231.7 665.1,248.3 676.7,281.7 688.4,298.3 700.0,315.0"/>
<rect x="70" y="13" width="14" height="4" fill="#2563eb"/><text x="90" y="18" font-size="12" fill="#111">avg Latenz</text><rect x="245" y="13" width="14" height="4" fill="#dc2626"/><text x="265" y="18" font-size="12" fill="#111">p95 Latenz</text><rect x="420" y="13" width="14" height="4" fill="#16a34a"/><text x="440" y="18" font-size="12" fill="#111">VUs</text>
</svg>