<svg xmlns="http://www.w3.org/2000/svg" viewBox="0 0 760 360" font-family="Segoe UI, Arial, sans-serif">
<rect width="760" height="360" fill="white"/>
<text x="380" y="22" text-anchor="middle" font-size="15" font-weight="bold" fill="#111">Load Test – POST /api/users/login – Durchsatz</text>
<line x1="60" y1="315" x2="700" y2="315" stroke="#e5e7eb" stroke-width="1"/><text x="52" y="319" text-anchor="end" font-size="11" fill="#888">0</text><line x1="60" y1="246.25" x2="700" y2="246.25" stroke="#e5e7eb" stroke-width="1"/><text x="52" y="250.25" text-anchor="end" font-size="11" fill="#888">24</text><line x1="60" y1="177.5" x2="700" y2="177.5" stroke="#e5e7eb" stroke-width="1"/><text x="52" y="181.5" text-anchor="end" font-size="11" fill="#888">48</text><line x1="60" y1="108.75" x2="700" y2="108.75" stroke="#e5e7eb" stroke-width="1"/><text x="52" y="112.75" text-anchor="end" font-size="11" fill="#888">73</text><line x1="60" y1="40" x2="700" y2="40" stroke="#e5e7eb" stroke-width="1"/><text x="52" y="44" text-anchor="end" font-size="11" fill="#888">97</text><line x1="60" y1="315" x2="700" y2="315" stroke="#374151"/><text x="60" y="333" text-anchor="middle" font-size="11" fill="#888">0s</text><text x="188" y="333" text-anchor="middle" font-size="11" fill="#888">11s</text><text x="316" y="333" text-anchor="middle" font-size="11" fill="#888">22s</text><text x="444" y="333" text-anchor="middle" font-size="11" fill="#888">33s</text><text x="572" y="333" text-anchor="middle" font-size="11" fill="#888">44s</text><text x="700" y="333" text-anchor="middle" font-size="11" fill="#888">55s</text>
<text x="14" y="177.5" transform="rotate(-90 14 177.5)" text-anchor="middle" font-size="11" fill="#111">Durchsatz (req/s)</text>
<polyline fill="none" stroke="#7c3aed" stroke-width="2" points="60.0,312.2 71.6,269.5 83.3,209.9 94.9,150.2 106.5,84.9 118.2,76.4 129.8,76.4 141.5,67.8 153.1,73.5 164.7,73.5 176.4,67.8 188.0,76.4 199.6,76.4 211.3,65.0 222.9,73.5 234.5,70.7 246.2,73.5 257.8,67.8 269.5,76.4 281.1,65.0 292.7,76.4 304.4,73.5 316.0,70.7 327.6,73.5 339.3,67.8 350.9,73.5 362.5,70.7 374.2,70.7 385.8,70.7 397.5,70.7 409.1,73.5 420.7,67.8 432.4,76.4 444.0,79.2 455.6,76.4 467.3,76.4 478.9,84.9 490.5,76.4 502.2,67.8 513.8,73.5 525.5,67.8 537.1,76.4 548.7,79.2 560.4,76.4 572.0,73.5 583.6,76.4 595.3,73.5 606.9,67.8 618.5,76.4 630.2,70.7 641.8,70.7 653.5,76.4 665.1,84.9 676.7,161.6 688.4,241.1 700.0,312.2"/>
<rect x="70" y="13" width="14" height="4" fill="#7c3aed"/><text x="90" y="18" font-size="12" fill="#111">Requests/s</text>
</svg>