<svg xmlns="http://www.w3.org/2000/svg" viewBox="0 0 760 360" font-family="Segoe UI, Arial, sans-serif">
<rect width="760" height="360" fill="white"/>
<text x="380" y="22" text-anchor="middle" font-size="15" font-weight="bold" fill="#111">Load Test – GET /api/articles – Latenz & Last</text>
<line x1="60" y1="315" x2="700" y2="315" stroke="#e5e7eb" stroke-width="1"/><text x="52" y="319" text-anchor="end" font-size="11" fill="#888">0ms</text><line x1="60" y1="246.25" x2="700" y2="246.25" stroke="#e5e7eb" stroke-width="1"/><text x="52" y="250.25" text-anchor="end" font-size="11" fill="#888">84ms</text><line x1="60" y1="177.5" x2="700" y2="177.5" stroke="#e5e7eb" stroke-width="1"/><text x="52" y="181.5" text-anchor="end" font-size="11" fill="#888">167ms</text><line x1="60" y1="108.75" x2="700" y2="108.75" stroke="#e5e7eb" stroke-width="1"/><text x="52" y="112.75" text-anchor="end" font-size="11" fill="#888">251ms</text><line x1="60" y1="40" x2="700" y2="40" stroke="#e5e7eb" stroke-width="1"/><text x="52" y="44" text-anchor="end" font-size="11" fill="#888">335ms</text><line x1="60" y1="315" x2="700" y2="315" stroke="#374151"/><text x="60" y="333" text-anchor="middle" font-size="11" fill="#888">0s</text><text x="188" y="333" text-anchor="middle" font-size="11" fill="#888">11s</text><text x="316" y="333" text-anchor="middle" font-size="11" fill="#888">22s</text><text x="443.9999999999999" y="333" text-anchor="middle" font-size="11" fill="#888">34s</text><text x="572" y="333" text-anchor="middle" font-size="11" fill="#888">45s</text><text x="700" y="333" text-anchor="middle" font-size="11" fill="#888">56s</text><text x="708" y="319" font-size="11" fill="#16a34a">0</text><text x="708" y="250.25" font-size="11" fill="#16a34a">6</text><text x="708" y="181.5" font-size="11" fill="#16a34a">11</text><text x="708" y="112.75" font-size="11" fill="#16a34a">17</text><text x="708" y="44" font-size="11" fill="#16a34a">22</text>
<text x="14" y="177.5" transform="rotate(-90 14 177.5)" text-anchor="middle" font-size="11" fill="#111">Latenz (ms)</text>
<text x="746" y="177.5" transform="rotate(90 746 177.5)" text-anchor="middle" font-size="11" fill="#16a34a">VUs</text>
<polyline fill="none" stroke="#2563eb" stroke-width="2" points="60.0,268.3 71.4,259.9 82.9,244.3 94.3,260.0 105.7,245.5 117.1,259.8 128.6,265.1 140.0,263.2 151.4,257.5 162.9,256.0 174.3,275.0 185.7,268.2 197.1,257.2 208.6,270.0 220.0,270.8 231.4,261.8 242.9,264.0 254.3,255.1 265.7,263.4 277.1,255.3 288.6,252.6 300.0,256.7 311.4,256.2 322.9,268.1 334.3,251.1 345.7,237.0 357.1,241.2 368.6,231.5 380.0,222.1 391.4,239.0 402.9,225.5 414.3,236.1 425.7,254.7 437.1,244.4 448.6,174.6 460.0,91.0 471.4,112.1 482.9,315.0 494.3,127.2 505.7,151.0 517.1,159.0 528.6,177.9 540.0,179.8 551.4,157.4 562.9,315.0 574.3,149.9 585.7,171.2 597.1,195.2 608.6,202.9 620.0,201.2 631.4,221.1 642.9,256.7 654.3,315.0 665.7,243.7 677.1,260.9 688.6,260.7 700.0,315.0"/><polyline fill="none" stroke="#dc2626" stroke-width="2" points="60.0,176.9 71.4,259.9 82.9,238.6 94.3,246.9 105.7,226.2 117.1,251.3 128.6,246.8 140.0,253.9 151.4,194.3 162.9,168.9 174.3,253.9 185.7,252.7 197.1,216.7 208.6,256.8 220.0,255.7 231.4,251.9 242.9,250.6 254.3,241.2 265.7,252.3 277.1,237.5 288.6,242.9 300.0,239.4 311.4,238.4 322.9,253.9 334.3,225.6 345.7,212.9 357.1,221.7 368.6,220.2 380.0,215.0 391.4,231.2 402.9,201.5 414.3,223.9 425.7,248.5 437.1,230.8 448.6,118.6 460.0,65.0 471.4,108.2 482.9,315.0 494.3,125.1 505.7,148.2 517.1,157.6 528.6,175.9 540.0,176.2 551.4,156.1 562.9,315.0 574.3,147.9 585.7,170.2 597.1,194.2 608.6,202.1 620.0,200.3 631.4,220.3 642.9,254.8 654.3,315.0 665.7,242.4 677.1,260.6 688.6,260.7 700.0,315.0"/><polyline fill="none" stroke="#16a34a" stroke-width="2" points="60.0,315.0 71.4,290.0 82.9,277.5 94.3,265.0 105.7,240.0 117.1,227.5 128.6,215.0 140.0,190.0 151.4,177.5 162.9,165.0 174.3,140.0 185.7,127.5 197.1,115.0 208.6,90.0 220.0,77.5 231.4,65.0 242.9,65.0 254.3,65.0 265.7,65.0 277.1,65.0 288.6,65.0 300.0,65.0 311.4,65.0 322.9,65.0 334.3,65.0 345.7,65.0 357.1,65.0 368.6,65.0 380.0,65.0 391.4,65.0 402.9,65.0 414.3,65.0 425.7,65.0 437.1,65.0 448.6,65.0 460.0,65.0 471.4,65.0 482.9,65.0 494.3,65.0 505.7,65.0 517.1,65.0 528.6,65.0 540.0,65.0 551.4,65.0 562.9,65.0 574.3,65.0 585.7,90.0 597.1,115.0 608.6,140.0 620.0,165.0 631.4,202.5 642.9,202.5 654.3,227.5 665.7,252.5 677.1,277.5 688.6,302.5 700.0,315.0"/>
<rect x="70" y="13" width="14" height="4" fill="#2563eb"/><text x="90" y="18" font-size="12" fill="#111">avg Latenz</text><rect x="245" y="13" width="14" height="4" fill="#dc2626"/><text x="265" y="18" font-size="12" fill="#111">p95 Latenz</text><rect x="420" y="13" width="14" height="4" fill="#16a34a"/><text x="440" y="18" font-size="12" fill="#111">VUs</text>
</svg>