<svg xmlns="http://www.w3.org/2000/svg" viewBox="0 0 760 360" font-family="Segoe UI, Arial, sans-serif">
<rect width="760" height="360" fill="white"/>
<text x="380" y="22" text-anchor="middle" font-size="15" font-weight="bold" fill="#111">Load Test – GET /api/articles – Durchsatz</text>
<line x1="60" y1="315" x2="700" y2="315" stroke="#e5e7eb" stroke-width="1"/><text x="52" y="319" text-anchor="end" font-size="11" fill="#888">0</text><line x1="60" y1="246.25" x2="700" y2="246.25" stroke="#e5e7eb" stroke-width="1"/><text x="52" y="250.25" text-anchor="end" font-size="11" fill="#888">6</text><line x1="60" y1="177.5" x2="700" y2="177.5" stroke="#e5e7eb" stroke-width="1"/><text x="52" y="181.5" text-anchor="end" font-size="11" fill="#888">11</text><line x1="60" y1="108.75" x2="700" y2="108.75" stroke="#e5e7eb" stroke-width="1"/><text x="52" y="112.75" text-anchor="end" font-size="11" fill="#888">17</text><line x1="60" y1="40" x2="700" y2="40" stroke="#e5e7eb" stroke-width="1"/><text x="52" y="44" text-anchor="end" font-size="11" fill="#888">22</text><line x1="60" y1="315" x2="700" y2="315" stroke="#374151"/><text x="60" y="333" text-anchor="middle" font-size="11" fill="#888">0s</text><text x="188" y="333" text-anchor="middle" font-size="11" fill="#888">11s</text><text x="316" y="333" text-anchor="middle" font-size="11" fill="#888">22s</text><text x="443.9999999999999" y="333" text-anchor="middle" font-size="11" fill="#888">34s</text><text x="572" y="333" text-anchor="middle" font-size="11" fill="#888">45s</text><text x="700" y="333" text-anchor="middle" font-size="11" fill="#888">56s</text>
<text x="14" y="177.5" transform="rotate(-90 14 177.5)" text-anchor="middle" font-size="11" fill="#111">Durchsatz (req/s)</text>
<polyline fill="none" stroke="#7c3aed" stroke-width="2" points="60.0,227.5 71.4,302.5 82.9,277.5 94.3,252.5 105.7,252.5 117.1,227.5 128.6,215.0 140.0,202.5 151.4,202.5 162.9,152.5 174.3,140.0 185.7,152.5 197.1,102.5 208.6,102.5 220.0,77.5 231.4,65.0 242.9,102.5 254.3,65.0 265.7,115.0 277.1,65.0 288.6,65.0 300.0,90.0 311.4,65.0 322.9,152.5 334.3,65.0 345.7,65.0 357.1,65.0 368.6,65.0 380.0,115.0 391.4,65.0 402.9,65.0 414.3,152.5 425.7,177.5 437.1,65.0 448.6,65.0 460.0,65.0 471.4,65.0 482.9,315.0 494.3,65.0 505.7,65.0 517.1,65.0 528.6,65.0 540.0,65.0 551.4,65.0 562.9,315.0 574.3,65.0 585.7,90.0 597.1,115.0 608.6,140.0 620.0,165.0 631.4,202.5 642.9,227.5 654.3,315.0 665.7,252.5 677.1,277.5 688.6,302.5 700.0,315.0"/>
<rect x="70" y="13" width="14" height="4" fill="#7c3aed"/><text x="90" y="18" font-size="12" fill="#111">Requests/s</text>
</svg>