<svg xmlns="http://www.w3.org/2000/svg" viewBox="0 0 760 360" font-family="Segoe UI, Arial, sans-serif">
<rect width="760" height="360" fill="white"/>
<text x="380" y="22" text-anchor="middle" font-size="15" font-weight="bold" fill="#111">Stress/Spike – POST /api/users/login – Latenz & Last</text>
<line x1="60" y1="315" x2="700" y2="315" stroke="#e5e7eb" stroke-width="1"/><text x="52" y="319" text-anchor="end" font-size="11" fill="#888">0ms</text><line x1="60" y1="246.25" x2="700" y2="246.25" stroke="#e5e7eb" stroke-width="1"/><text x="52" y="250.25" text-anchor="end" font-size="11" fill="#888">358ms</text><line x1="60" y1="177.5" x2="700" y2="177.5" stroke="#e5e7eb" stroke-width="1"/><text x="52" y="181.5" text-anchor="end" font-size="11" fill="#888">717ms</text><line x1="60" y1="108.75" x2="700" y2="108.75" stroke="#e5e7eb" stroke-width="1"/><text x="52" y="112.75" text-anchor="end" font-size="11" fill="#888">1075ms</text><line x1="60" y1="40" x2="700" y2="40" stroke="#e5e7eb" stroke-width="1"/><text x="52" y="44" text-anchor="end" font-size="11" fill="#888">1434ms</text><line x1="60" y1="315" x2="700" y2="315" stroke="#374151"/><text x="60" y="333" text-anchor="middle" font-size="11" fill="#888">0s</text><text x="188" y="333" text-anchor="middle" font-size="11" fill="#888">8s</text><text x="316" y="333" text-anchor="middle" font-size="11" fill="#888">16s</text><text x="444" y="333" text-anchor="middle" font-size="11" fill="#888">24s</text><text x="572" y="333" text-anchor="middle" font-size="11" fill="#888">32s</text><text x="700" y="333" text-anchor="middle" font-size="11" fill="#888">40s</text><text x="708" y="319" font-size="11" fill="#16a34a">0</text><text x="708" y="250.25" font-size="11" fill="#16a34a">28</text><text x="708" y="181.5" font-size="11" fill="#16a34a">55</text><text x="708" y="112.75" font-size="11" fill="#16a34a">83</text><text x="708" y="44" font-size="11" fill="#16a34a">110</text>
<text x="14" y="177.5" transform="rotate(-90 14 177.5)" text-anchor="middle" font-size="11" fill="#111">Latenz (ms)</text>
<text x="746" y="177.5" transform="rotate(90 746 177.5)" text-anchor="middle" font-size="11" fill="#16a34a">VUs</text>
<polyline fill="none" stroke="#2563eb" stroke-width="2" points="60.0,301.3 76.0,301.1 92.0,302.7 108.0,304.7 124.0,305.4 140.0,303.8 156.0,301.8 172.0,299.4 188.0,297.4 204.0,295.2 220.0,280.3 236.0,246.2 252.0,211.4 268.0,173.5 284.0,143.0 300.0,103.0 316.0,84.3 332.0,82.6 348.0,82.4 364.0,84.6 380.0,74.4 396.0,70.9 412.0,90.9 428.0,93.9 444.0,93.7 460.0,95.9 476.0,93.7 492.0,91.5 508.0,90.3 524.0,90.2 540.0,91.3 556.0,91.7 572.0,91.1 588.0,88.5 604.0,90.2 620.0,90.7 636.0,91.5 652.0,132.5 668.0,201.8 684.0,275.4 700.0,300.5"/><polyline fill="none" stroke="#dc2626" stroke-width="2" points="60.0,301.3 76.0,295.5 92.0,299.5 108.0,302.9 124.0,304.3 140.0,298.0 156.0,298.1 172.0,296.7 188.0,296.2 204.0,292.7 220.0,263.0 236.0,232.5 252.0,190.2 268.0,158.9 284.0,127.5 300.0,88.8 316.0,78.6 332.0,80.0 348.0,79.1 364.0,80.9 380.0,68.4 396.0,65.0 412.0,82.9 428.0,92.9 444.0,92.8 460.0,94.2 476.0,91.6 492.0,90.1 508.0,88.7 524.0,88.0 540.0,88.9 556.0,90.3 572.0,88.9 588.0,86.7 604.0,87.4 620.0,88.4 636.0,88.6 652.0,104.2 668.0,167.4 684.0,244.2 700.0,300.5"/><polyline fill="none" stroke="#16a34a" stroke-width="2" points="60.0,315.0 76.0,312.5 92.0,310.0 108.0,307.5 124.0,305.0 140.0,302.5 156.0,300.0 172.0,297.5 188.0,295.0 204.0,292.5 220.0,250.0 236.0,205.0 252.0,160.0 268.0,115.0 284.0,70.0 300.0,65.0 316.0,65.0 332.0,65.0 348.0,65.0 364.0,65.0 380.0,65.0 396.0,65.0 412.0,65.0 428.0,65.0 444.0,65.0 460.0,65.0 476.0,65.0 492.0,65.0 508.0,65.0 524.0,65.0 540.0,65.0 556.0,65.0 572.0,65.0 588.0,65.0 604.0,65.0 620.0,77.5 636.0,130.0 652.0,187.5 668.0,250.0 684.0,307.5 700.0,315.0"/>
<rect x="70" y="13" width="14" height="4" fill="#2563eb"/><text x="90" y="18" font-size="12" fill="#111">avg Latenz</text><rect x="245" y="13" width="14" height="4" fill="#dc2626"/><text x="265" y="18" font-size="12" fill="#111">p95 Latenz</text><rect x="420" y="13" width="14" height="4" fill="#16a34a"/><text x="440" y="18" font-size="12" fill="#111">VUs</text>
</svg>