<svg xmlns="http://www.w3.org/2000/svg" viewBox="0 0 760 360" font-family="Segoe UI, Arial, sans-serif">
<rect width="760" height="360" fill="white"/>
<text x="380" y="22" text-anchor="middle" font-size="15" font-weight="bold" fill="#111">Stress/Spike – POST /api/users/login – Durchsatz</text>
<line x1="60" y1="315" x2="700" y2="315" stroke="#e5e7eb" stroke-width="1"/><text x="52" y="319" text-anchor="end" font-size="11" fill="#888">0</text><line x1="60" y1="246.25" x2="700" y2="246.25" stroke="#e5e7eb" stroke-width="1"/><text x="52" y="250.25" text-anchor="end" font-size="11" fill="#888">24</text><line x1="60" y1="177.5" x2="700" y2="177.5" stroke="#e5e7eb" stroke-width="1"/><text x="52" y="181.5" text-anchor="end" font-size="11" fill="#888">48</text><line x1="60" y1="108.75" x2="700" y2="108.75" stroke="#e5e7eb" stroke-width="1"/><text x="52" y="112.75" text-anchor="end" font-size="11" fill="#888">73</text><line x1="60" y1="40" x2="700" y2="40" stroke="#e5e7eb" stroke-width="1"/><text x="52" y="44" text-anchor="end" font-size="11" fill="#888">97</text><line x1="60" y1="315" x2="700" y2="315" stroke="#374151"/><text x="60" y="333" text-anchor="middle" font-size="11" fill="#888">0s</text><text x="188" y="333" text-anchor="middle" font-size="11" fill="#888">8s</text><text x="316" y="333" text-anchor="middle" font-size="11" fill="#888">16s</text><text x="444" y="333" text-anchor="middle" font-size="11" fill="#888">24s</text><text x="572" y="333" text-anchor="middle" font-size="11" fill="#888">32s</text><text x="700" y="333" text-anchor="middle" font-size="11" fill="#888">40s</text>
<text x="14" y="177.5" transform="rotate(-90 14 177.5)" text-anchor="middle" font-size="11" fill="#111">Durchsatz (req/s)</text>
<polyline fill="none" stroke="#7c3aed" stroke-width="2" points="60.0,312.2 76.0,278.1 92.0,226.9 108.0,158.8 124.0,90.6 140.0,76.4 156.0,65.0 172.0,76.4 188.0,70.7 204.0,67.8 220.0,73.5 236.0,73.5 252.0,87.7 268.0,79.2 284.0,82.0 300.0,90.6 316.0,76.4 332.0,79.2 348.0,79.2 364.0,84.9 380.0,96.3 396.0,79.2 412.0,65.0 428.0,70.7 444.0,67.8 460.0,67.8 476.0,67.8 492.0,73.5 508.0,73.5 524.0,70.7 540.0,70.7 556.0,76.4 572.0,65.0 588.0,76.4 604.0,73.5 620.0,73.5 636.0,70.7 652.0,73.5 668.0,73.5 684.0,79.2 700.0,312.2"/>
<rect x="70" y="13" width="14" height="4" fill="#7c3aed"/><text x="90" y="18" font-size="12" fill="#111">Requests/s</text>
</svg>